<svg width="236" height="236" viewBox="0 0 236 236" fill="none" xmlns="http://www.w3.org/2000/svg">
<path d="M235.83 0H0V235.83H235.83V0Z" fill="#182B81"/>
<path d="M119.29 138.76H168.2C173.75 138.76 178.59 134.98 179.92 129.59L191.44 83.22C193.33 75.6 187.57 68.23 179.72 68.23H136.18C130.65 68.23 125.83 71.98 124.47 77.33L120.57 92.66C119.68 96.15 116.54 98.59 112.95 98.59H67.5198C61.9898 98.59 57.1698 102.34 55.8098 107.69L44.4098 152.53C42.4698 160.17 48.2398 167.59 56.1198 167.59H96.4498C101.98 167.59 106.8 163.84 108.16 158.49L111.67 144.69C112.56 141.2 115.7 138.76 119.29 138.76Z" fill="white"/>
</svg>
