<svg width="273" height="46" viewBox="0 0 273 46" fill="none" xmlns="http://www.w3.org/2000/svg">
<path d="M22.4687 5.04688C18.9033 5.04688 15.4179 6.10416 12.4533 8.08502C9.48871 10.0659 7.17811 12.8814 5.81366 16.1754C4.44922 19.4695 4.09222 23.0942 4.7878 26.5911C5.48339 30.0881 7.20033 33.3003 9.72149 35.8214C12.2427 38.3426 15.4548 40.0595 18.9518 40.7551C22.4487 41.4507 26.0734 41.0937 29.3675 39.7292C32.6615 38.3648 35.477 36.0542 37.4579 33.0896C39.4388 30.125 40.496 26.6397 40.496 23.0742C40.491 18.2946 38.5901 13.7122 35.2104 10.3325C31.8307 6.95284 27.2483 5.05192 22.4687 5.04688ZM23.8554 38.2639V27.2343H28.0156C28.3834 27.2343 28.7361 27.0882 28.9961 26.8282C29.2562 26.5681 29.4023 26.2154 29.4023 25.8476C29.4023 25.4798 29.2562 25.1271 28.9961 24.8671C28.7361 24.607 28.3834 24.4609 28.0156 24.4609H23.8554V20.3008C23.8554 19.5652 24.1476 18.8598 24.6678 18.3396C25.1879 17.8195 25.8933 17.5273 26.6289 17.5273H29.4023C29.7701 17.5273 30.1228 17.3812 30.3829 17.1212C30.6429 16.8611 30.789 16.5084 30.789 16.1406C30.789 15.7728 30.6429 15.4201 30.3829 15.16C30.1228 14.9 29.7701 14.7539 29.4023 14.7539H26.6289C25.1578 14.7539 23.7469 15.3383 22.7066 16.3785C21.6664 17.4188 21.082 18.8296 21.082 20.3008V24.4609H16.9219C16.5541 24.4609 16.2014 24.607 15.9413 24.8671C15.6812 25.1271 15.5351 25.4798 15.5351 25.8476C15.5351 26.2154 15.6812 26.5681 15.9413 26.8282C16.2014 27.0882 16.5541 27.2343 16.9219 27.2343H21.082V38.2639C17.1728 37.9071 13.5517 36.0569 10.9719 33.0983C8.39202 30.1398 7.05203 26.3005 7.23065 22.3791C7.40926 18.4578 9.09272 14.7562 11.9309 12.0444C14.769 9.33263 18.5433 7.81934 22.4687 7.81934C26.3941 7.81934 30.1685 9.33263 33.0066 12.0444C35.8447 14.7562 37.5282 18.4578 37.7068 22.3791C37.8854 26.3005 36.5454 30.1398 33.9656 33.0983C31.3857 36.0569 27.7646 37.9071 23.8554 38.2639Z" fill="#112B87"/>
<path d="M102.106 14.6633C100.406 14.6633 98.7445 15.1566 97.3311 16.0809C95.9177 17.0052 94.8161 18.3189 94.1656 19.856C93.5151 21.393 93.3449 23.0844 93.6765 24.7161C94.0082 26.3478 94.8267 27.8466 96.0287 29.023C97.2307 30.1994 98.7621 31.0006 100.429 31.3251C102.096 31.6497 103.825 31.4831 105.395 30.8464C106.965 30.2098 108.308 29.1316 109.252 27.7483C110.197 26.365 110.701 24.7387 110.701 23.075C110.698 20.8448 109.792 18.7066 108.181 17.1296C106.569 15.5526 104.385 14.6656 102.106 14.6633ZM102.106 28.6828C100.973 28.6828 99.865 28.3539 98.9227 27.7378C97.9805 27.1216 97.2461 26.2457 96.8124 25.221C96.3787 24.1963 96.2653 23.0688 96.4864 21.981C96.7074 20.8932 97.2531 19.894 98.0545 19.1097C98.8558 18.3254 99.8767 17.7913 100.988 17.575C102.1 17.3586 103.252 17.4696 104.299 17.8941C105.346 18.3185 106.24 19.0373 106.87 19.9595C107.5 20.8817 107.836 21.9659 107.836 23.075C107.836 24.5623 107.232 25.9887 106.158 27.0403C105.083 28.092 103.626 28.6828 102.106 28.6828ZM110.701 4.84961H93.5114C90.8529 4.85239 88.3042 5.88723 86.4244 7.72705C84.5445 9.56686 83.4872 12.0614 83.4844 14.6633V31.4868C83.4872 34.0886 84.5445 36.5832 86.4244 38.423C88.3042 40.2628 90.8529 41.2977 93.5114 41.3004H110.701C113.359 41.2977 115.908 40.2628 117.788 38.423C119.667 36.5832 120.725 34.0886 120.728 31.4868V14.6633C120.725 12.0614 119.667 9.56686 117.788 7.72705C115.908 5.88723 113.359 4.85239 110.701 4.84961ZM117.863 31.4868C117.863 33.3459 117.108 35.1288 115.765 36.4434C114.422 37.758 112.6 38.4965 110.701 38.4965H93.5114C91.6119 38.4965 89.7902 37.758 88.447 36.4434C87.1038 35.1288 86.3492 33.3459 86.3492 31.4868V14.6633C86.3492 12.8042 87.1038 11.0212 88.447 9.70663C89.7902 8.39205 91.6119 7.65352 93.5114 7.65352H110.701C112.6 7.65352 114.422 8.39205 115.765 9.70663C117.108 11.0212 117.863 12.8042 117.863 14.6633V31.4868ZM113.565 13.9623C113.565 14.3782 113.439 14.7848 113.203 15.1306C112.967 15.4765 112.632 15.746 112.239 15.9052C111.846 16.0643 111.414 16.106 110.998 16.0248C110.581 15.9437 110.198 15.7434 109.897 15.4493C109.597 15.1552 109.392 14.7805 109.309 14.3726C109.227 13.9646 109.269 13.5418 109.432 13.1576C109.594 12.7733 109.87 12.4449 110.223 12.2138C110.576 11.9827 110.992 11.8594 111.417 11.8594C111.987 11.8594 112.533 12.0809 112.936 12.4753C113.339 12.8697 113.565 13.4046 113.565 13.9623Z" fill="#112B87"/>
<path d="M197.483 10.7771C197.376 10.5177 197.196 10.2959 196.964 10.1399C196.732 9.98383 196.46 9.90051 196.181 9.90045H190.823C190.074 8.61594 189.007 7.54864 187.728 6.80231C186.448 6.05599 184.999 5.65604 183.52 5.64134C182.419 5.62678 181.325 5.83437 180.305 6.2519C179.284 6.66943 178.357 7.28847 177.577 8.07258C176.774 8.86624 176.137 9.81358 175.703 10.8589C175.269 11.9042 175.047 13.0264 175.05 14.1596V15.2403C167.96 13.3557 162.161 7.54374 162.1 7.48163C161.911 7.28948 161.671 7.15575 161.409 7.09619C161.147 7.03664 160.874 7.05374 160.621 7.14548C160.369 7.23723 160.148 7.39979 159.984 7.61403C159.82 7.82827 159.72 8.08526 159.696 8.35475C158.937 16.8357 161.381 22.511 163.57 25.7781C164.637 27.3931 165.936 28.8403 167.423 30.0727C164.741 33.1836 160.518 34.818 160.473 34.8358C160.274 34.9108 160.094 35.0301 159.948 35.1849C159.801 35.3396 159.691 35.5257 159.626 35.7293C159.561 35.9328 159.542 36.1486 159.571 36.3605C159.6 36.5724 159.677 36.7749 159.795 36.9529C159.927 37.1517 160.455 37.8491 161.746 38.5004C163.341 39.3061 165.449 39.7142 168.006 39.7142C180.451 39.7142 190.849 30.0567 191.911 17.6307L197.178 12.3246C197.375 12.1259 197.509 11.8729 197.563 11.5974C197.618 11.322 197.59 11.0365 197.483 10.7771ZM189.558 15.9963C189.317 16.2403 189.172 16.5645 189.15 16.9085C188.433 28.1046 179.149 36.8748 168.006 36.8748C166.146 36.8748 164.836 36.6264 163.917 36.3282C165.944 35.2191 168.77 33.3114 170.588 30.5642C170.694 30.4027 170.767 30.2208 170.801 30.0299C170.835 29.839 170.83 29.643 170.786 29.4541C170.742 29.2651 170.661 29.0873 170.546 28.9315C170.431 28.7757 170.286 28.6453 170.119 28.5483C170.036 28.5003 162.387 23.8739 162.371 11.5118C165.188 13.8188 170.339 17.3983 176.224 18.3956C176.426 18.4299 176.633 18.4195 176.83 18.3651C177.027 18.3108 177.211 18.2138 177.367 18.0808C177.523 17.9479 177.649 17.7823 177.735 17.5955C177.822 17.4087 177.867 17.2051 177.867 16.999V14.1596C177.866 13.4022 178.015 12.6522 178.305 11.9537C178.595 11.2552 179.021 10.6222 179.558 10.0921C180.072 9.57267 180.685 9.16244 181.359 8.88568C182.034 8.60891 182.757 8.47122 183.485 8.48075C185.714 8.50914 187.797 9.87916 188.669 11.8898C188.779 12.1426 188.96 12.3576 189.189 12.5086C189.418 12.6596 189.686 12.7399 189.96 12.7399H192.777L189.558 15.9963Z" fill="#112B87"/>
<path d="M271.467 13.9177C269.237 13.9154 267.098 13.0241 265.521 11.4395C263.944 9.8549 263.057 7.70636 263.055 5.46537C263.055 5.09175 262.907 4.73343 262.644 4.46925C262.382 4.20506 262.025 4.05664 261.653 4.05664H254.643C254.272 4.05664 253.915 4.20506 253.652 4.46925C253.389 4.73343 253.241 5.09175 253.241 5.46537V28.7094C253.241 29.3396 253.073 29.9582 252.753 30.5006C252.434 31.043 251.976 31.4894 251.426 31.7933C250.877 32.0971 250.256 32.2472 249.629 32.2279C249.003 32.2087 248.392 32.0207 247.862 31.6837C247.332 31.3467 246.902 30.873 246.616 30.312C246.331 29.751 246.2 29.1232 246.238 28.4942C246.276 27.8651 246.481 27.2578 246.833 26.7357C247.184 26.2136 247.668 25.7957 248.235 25.5256C248.474 25.4113 248.677 25.231 248.819 25.0057C248.96 24.7803 249.036 24.5191 249.036 24.2525V16.7352C249.036 16.5293 248.991 16.3258 248.904 16.1392C248.818 15.9526 248.691 15.7873 248.534 15.655C248.377 15.5227 248.193 15.4266 247.995 15.3735C247.797 15.3204 247.59 15.3116 247.388 15.3476C241.134 16.4675 236.418 22.2116 236.418 28.7094C236.418 32.2587 237.821 35.6627 240.319 38.1725C242.817 40.6823 246.204 42.0923 249.737 42.0923C253.269 42.0923 256.656 40.6823 259.154 38.1725C261.652 35.6627 263.055 32.2587 263.055 28.7094V21.7168C265.652 23.0781 268.538 23.7857 271.467 23.7788C271.839 23.7788 272.195 23.6304 272.458 23.3662C272.721 23.102 272.869 22.7437 272.869 22.3701V15.3265C272.869 14.9528 272.721 14.5945 272.458 14.3303C272.195 14.0662 271.839 13.9177 271.467 13.9177ZM270.065 20.898C267.325 20.654 264.702 19.6715 262.472 18.0541C262.262 17.9027 262.015 17.8123 261.757 17.7931C261.5 17.7738 261.242 17.8263 261.012 17.9449C260.783 18.0635 260.59 18.2434 260.456 18.465C260.322 18.6865 260.251 18.941 260.251 19.2005V28.7094C260.251 31.5115 259.143 34.1989 257.172 36.1803C255.2 38.1617 252.525 39.2748 249.737 39.2748C246.948 39.2748 244.273 38.1617 242.302 36.1803C240.33 34.1989 239.222 31.5115 239.222 28.7094C239.222 24.1486 242.138 20.058 246.232 18.5665V23.439C245.325 24.0474 244.591 24.8814 244.101 25.8597C243.611 26.838 243.382 27.9272 243.435 29.0211C243.489 30.115 243.823 31.1763 244.407 32.1016C244.99 33.0269 245.802 33.7845 246.763 34.3008C247.724 34.817 248.802 35.0742 249.892 35.0473C250.981 35.0204 252.045 34.7102 252.98 34.1471C253.915 33.584 254.689 32.7871 255.226 31.8341C255.763 30.8812 256.045 29.8046 256.045 28.7094V6.8741H260.339C260.654 9.35536 261.78 11.6613 263.54 13.43C265.301 15.1988 267.596 16.3303 270.065 16.6471V20.898Z" fill="#112B87"/>
</svg>
