<svg width="41" height="43" viewBox="0 0 41 43" fill="none" xmlns="http://www.w3.org/2000/svg">
<path d="M38.6509 15.1265L35.068 8.9209C34.5982 8.10619 33.9298 7.4236 33.1251 6.93673C32.3204 6.44985 31.4055 6.17452 30.4658 6.13638C29.526 6.09824 28.5918 6.29852 27.7503 6.71858C26.9088 7.13864 26.1873 7.76481 25.6529 8.53878L22.5995 3.24668C22.1165 2.41035 21.4244 1.71389 20.5911 1.22558C19.7578 0.73727 18.8118 0.473882 17.846 0.461239C16.8802 0.448596 15.9277 0.687133 15.0819 1.15346C14.2361 1.61979 13.526 2.2979 13.0213 3.1213C12.0355 2.2339 10.7655 1.72713 9.43948 1.69207C8.1135 1.65701 6.81849 2.09595 5.78717 2.93002C4.75586 3.76408 4.05586 4.93858 3.81298 6.24244C3.5701 7.5463 3.80027 8.89402 4.46211 10.0434L5.12694 11.1958C4.18929 11.2711 3.28598 11.5825 2.50114 12.101C1.7163 12.6194 1.07546 13.3281 0.638335 14.1609C0.201208 14.9938 -0.0179924 15.9237 0.00115496 16.864C0.0203023 17.8044 0.277174 18.7246 0.747841 19.5389L8.31173 32.6388C9.45715 34.6342 10.9868 36.3828 12.8123 37.7834C14.6378 39.1841 16.7229 40.209 18.947 40.7988C20.4351 41.1963 21.9689 41.397 23.5092 41.3959C26.5813 41.3908 29.598 40.578 32.2567 39.0389C34.9154 37.4998 37.1224 35.2886 38.6565 32.6272C40.1905 29.9658 40.9975 26.9479 40.9965 23.8761C40.9955 20.8044 40.1866 17.7869 38.6509 15.1265ZM37.3232 27.5915C36.5897 30.3291 35.0608 32.7878 32.9297 34.6566C30.7987 36.5254 28.1613 37.7204 25.351 38.0904C22.5408 38.4605 19.6839 37.9889 17.1416 36.7355C14.5994 35.4821 12.4859 33.503 11.0686 31.0486L3.50468 17.9487C3.34784 17.677 3.24606 17.3771 3.20514 17.0661C3.16423 16.7551 3.18498 16.439 3.26622 16.136C3.43028 15.5241 3.83074 15.0024 4.3795 14.6857C4.92827 14.369 5.58039 14.2832 6.1924 14.4472C6.49543 14.5285 6.7795 14.6686 7.02838 14.8596C7.27727 15.0506 7.48609 15.2887 7.64292 15.5604L12.022 23.1433C12.1235 23.3301 12.2614 23.4948 12.4275 23.6275C12.5936 23.7602 12.7847 23.8583 12.9894 23.916C13.194 23.9736 13.4082 23.9898 13.6192 23.9634C13.8302 23.9369 14.0338 23.8686 14.2179 23.7622C14.402 23.6559 14.563 23.5137 14.6913 23.3442C14.8196 23.1746 14.9126 22.9811 14.9649 22.775C15.0172 22.5689 15.0277 22.3544 14.9957 22.1442C14.9638 21.934 14.89 21.7323 14.7789 21.5511L7.21497 8.45319C6.97878 8.04409 6.86923 7.57414 6.90017 7.10278C6.9311 6.63142 7.10114 6.17982 7.38878 5.80509C7.67641 5.43036 8.06872 5.14933 8.5161 4.99754C8.96347 4.84575 9.44582 4.83002 9.90214 4.95233C10.2057 5.03239 10.4903 5.17197 10.7394 5.36296C10.9885 5.55395 11.1971 5.79255 11.3532 6.06489L18.1209 17.7855C18.3379 18.1393 18.6845 18.3944 19.0868 18.4964C19.4891 18.5985 19.9154 18.5394 20.2748 18.3318C20.6342 18.1242 20.8984 17.7846 21.011 17.3851C21.1236 16.9856 21.0758 16.558 20.8777 16.1933L15.7025 7.23715C15.3994 6.68954 15.3234 6.04485 15.4908 5.44178C15.6583 4.83872 16.0558 4.32548 16.5979 4.01249C17.1399 3.69951 17.7832 3.61178 18.3893 3.76819C18.9954 3.9246 19.5158 4.31265 19.8387 4.84884L26.6681 16.6749C24.9295 18.1152 23.7562 20.1237 23.3556 22.3453C22.9549 24.567 23.3527 26.8588 24.4786 28.8155C24.6897 29.1813 25.0376 29.4483 25.4456 29.5576C25.8536 29.667 26.2883 29.6098 26.6542 29.3987C27.02 29.1875 27.287 28.8397 27.3964 28.4318C27.5057 28.0238 27.4485 27.5891 27.2374 27.2233C26.3929 25.7606 26.164 24.0224 26.6011 22.391C27.0382 20.7596 28.1055 19.3685 29.5683 18.5239C29.7494 18.4194 29.9082 18.2802 30.0356 18.1143C30.163 17.9484 30.2564 17.759 30.3106 17.557C30.3647 17.355 30.3786 17.1443 30.3513 16.937C30.324 16.7296 30.2561 16.5297 30.1515 16.3485L28.161 12.9014C27.8579 12.3538 27.7819 11.7091 27.9494 11.1061C28.1168 10.503 28.5143 9.98975 29.0564 9.67676C29.5984 9.36377 30.2417 9.27605 30.8478 9.43246C31.4539 9.58887 31.9744 9.97692 32.2972 10.5131L35.8801 16.7187C36.8279 18.3452 37.4435 20.1435 37.6912 22.0095C37.9389 23.8755 37.8138 25.7722 37.3232 27.5895V27.5915ZM31.499 1.1808C31.5531 0.978731 31.6464 0.789293 31.7737 0.623309C31.901 0.457325 32.0598 0.318047 32.241 0.213435C32.4221 0.108822 32.6221 0.040925 32.8295 0.0136222C33.0369 -0.0136806 33.2477 0.000146204 33.4497 0.0543128C36.6166 0.904152 39.2222 2.86256 40.7867 5.57329C40.9979 5.93909 41.0551 6.37378 40.9457 6.78174C40.8363 7.1897 40.5693 7.5375 40.2035 7.74864C39.8376 7.95978 39.4029 8.01696 38.9949 7.9076C38.5869 7.79824 38.239 7.5313 38.0279 7.1655C36.8893 5.19116 34.9705 3.75818 32.6257 3.13125C32.4236 3.0772 32.2341 2.98387 32.0681 2.85658C31.9021 2.7293 31.7628 2.57055 31.6582 2.38942C31.5536 2.20829 31.4856 2.00832 31.4583 1.80094C31.431 1.59356 31.4449 1.38283 31.499 1.1808ZM10.9253 42.393C10.7958 42.5574 10.6352 42.6946 10.4527 42.7969C10.2701 42.8991 10.0692 42.9644 9.86146 42.989C9.65368 43.0136 9.44309 42.997 9.24173 42.9401C9.04037 42.8833 8.85219 42.7873 8.68794 42.6577C6.49839 40.9282 4.68505 38.7608 2.99511 35.8351C2.78395 35.4693 2.72676 35.0347 2.83614 34.6267C2.94551 34.2187 3.21249 33.8709 3.57833 33.6598C3.94417 33.4487 4.37892 33.3915 4.78692 33.5008C5.19493 33.6102 5.54278 33.8771 5.75394 34.2429C7.23487 36.8064 8.79343 38.6852 10.6605 40.158C10.9919 40.4194 11.2059 40.8016 11.2555 41.2207C11.3052 41.6398 11.1864 42.0615 10.9253 42.393Z" fill="#112B87"/>
</svg>
