<svg width="184" height="47" viewBox="0 0 184 47" fill="none" xmlns="http://www.w3.org/2000/svg">
<g id="Ebene_1" clip-path="url(#clip0_163_101)">
<path id="Vector" d="M5.21 40.48V20.89H4.65C1.67 20.89 0 19.65 0 17.42C0 15.19 1.67 14.01 4.65 14.01H5.21V11.22C4.96 4.09 8.55 0 15.75 0C19.9 0 22.63 1.55 22.63 4.53C22.63 6.33 21.51 7.44 19.84 7.44C19.1 7.44 18.35 7.13 17.17 7.13C15.12 7.13 13.82 8.25 13.88 11.22L13.94 14.01H16.67C19.65 14.01 21.32 15.25 21.32 17.42C21.32 19.71 19.65 20.89 16.67 20.89H13.94V40.48C13.94 43.95 12.45 45.81 9.6 45.81C6.75 45.81 5.2 43.95 5.2 40.48H5.21ZM26.22 40.54V5.64C26.22 2.23 27.77 0.37 30.62 0.37C33.47 0.37 34.96 2.23 34.96 5.64V40.54C34.96 43.95 33.47 45.81 30.62 45.81C27.77 45.81 26.22 43.95 26.22 40.54Z" fill="#112B87"/>
<path id="Vector_2" d="M40.9805 27.3398C40.9805 16.1198 45.8205 8.7998 55.3605 8.7998C64.9005 8.7998 69.6805 16.0498 69.6805 27.3398C69.6805 38.6298 64.9105 46.1198 55.3605 46.1198C45.8105 46.1198 40.9805 38.5598 40.9805 27.3398ZM60.8105 27.3998C60.8105 19.7098 59.0105 16.1798 55.3505 16.1798C51.6905 16.1798 49.8305 19.7098 49.8305 27.3998C49.8305 35.0898 51.6905 38.8098 55.3505 38.8098C59.0105 38.8098 60.8105 35.2098 60.8105 27.3998Z" fill="#112B87"/>
<path id="Vector_3" d="M78.6084 40.4199L73.7084 15.9299C73.4584 14.7499 73.3984 13.8199 73.3984 13.3299C73.3984 10.6599 75.0684 9.17992 77.3684 9.17992C79.5384 9.17992 81.0884 10.5399 81.5184 13.7699L84.9284 34.5399L88.9584 14.7599C89.7684 10.4799 91.5584 9.17992 94.1084 9.17992C96.6584 9.17992 98.4484 10.4199 99.2584 14.7599L103.228 34.7799L106.828 13.6999C107.258 10.4799 108.748 9.16992 110.918 9.16992C113.208 9.16992 114.758 10.5999 114.758 13.3199C114.758 13.8199 114.758 14.6799 114.508 15.8599L109.428 40.2799C108.688 44.0599 106.758 45.7999 104.038 45.7999H103.918C101.008 45.7999 98.8984 44.1899 98.2184 40.3399L93.9384 19.8799L89.6584 40.3999C88.9784 44.1799 87.0584 45.7899 84.1984 45.7899H84.1384C81.3484 45.7899 79.3684 44.2399 78.6184 40.3999L78.6084 40.4199Z" fill="#112B87"/>
<path id="Vector_4" d="M119.37 22.7501L123.15 5.02012C123.77 2.17012 125.32 0.370117 127.8 0.370117C130.96 0.370117 132.57 2.23012 131.64 6.32012L127.98 23.7401C127.11 27.8301 128.29 29.7501 131.45 29.7501C134.36 29.7501 135.85 27.8901 136.66 24.0501L140.63 5.02012C141.19 2.17012 142.8 0.370117 145.28 0.370117C148.44 0.370117 150.05 2.23012 149.12 6.32012L145.4 23.8601C143.66 32.0401 140.5 37.3101 131.08 37.3101C121.66 37.3101 117.44 31.7301 119.36 22.7401L119.37 22.7501Z" fill="#112B87"/>
<path id="Vector_5" d="M149.229 39.8L156.739 5.02C157.359 2.17 158.909 0.37 161.389 0.37C164.549 0.37 166.159 2.23 165.229 6.32L164.919 7.75C167.209 3.1 170.249 0 174.529 0C179.799 0 183.089 4.59 183.089 12.34C183.089 25.48 176.639 37.32 168.459 37.32C163.689 37.32 161.209 34.03 160.459 29.14L157.779 41.17C157.159 44.02 155.609 45.82 153.129 45.82C149.909 45.82 148.359 43.96 149.219 39.81L149.229 39.8ZM174.169 13.64C174.169 9.49 172.499 7.63 170.019 7.63C165.369 7.63 161.899 16.31 161.899 23.5C161.899 27.65 163.509 29.51 166.299 29.51C170.889 29.51 174.169 20.96 174.169 13.64Z" fill="#112B87"/>
</g>
<defs>
<clipPath id="clip0_163_101">
<rect width="183.09" height="46.12" fill="white"/>
</clipPath>
</defs>
</svg>
