<svg width="63" height="55" viewBox="0 0 63 55" fill="none" xmlns="http://www.w3.org/2000/svg">
<path d="M58.7277 34.2776L59.3971 27.9421C59.4807 27.1509 59.0873 26.3853 58.3953 25.9926L19.484 3.90831C18.6852 3.45498 17.6804 3.60392 17.0475 4.26946L2.37665 19.6968C1.31821 20.8098 1.85739 22.6511 3.34903 23.0173L56.2618 36.0097C57.4388 36.2988 58.6004 35.4828 58.7277 34.2776Z" fill="#112B87"/>
<path d="M58.2418 43.1938L57.2414 38.7899C57.0654 38.0151 56.4474 37.4179 55.6669 37.2686L18.6771 30.1916C17.9943 30.061 17.2925 30.2943 16.8239 30.8079L6.99342 41.5815C5.83137 42.8551 6.71742 44.9039 8.44125 44.9294L56.2619 45.6366C57.5573 45.6558 58.5288 44.4571 58.2418 43.1938Z" fill="#19AD92"/>
</svg>
