<svg width="63" height="58" viewBox="0 0 63 58" fill="none" xmlns="http://www.w3.org/2000/svg">
<path d="M58.7277 34.2776L59.3971 27.9421C59.4807 27.1509 59.0873 26.3853 58.3953 25.9926L19.484 3.90831C18.6852 3.45498 17.6804 3.60392 17.0475 4.26946L2.37665 19.6968C1.31821 20.8098 1.85739 22.6511 3.34903 23.0173L56.2618 36.0097C57.4388 36.2988 58.6004 35.4828 58.7277 34.2776Z" fill="#112B87"/>
<path d="M56.7538 41.8997L57.7542 46.3036C57.9695 47.2511 57.2408 48.1501 56.2693 48.1357L8.44864 47.4285C7.15577 47.4094 6.49124 45.8727 7.36277 44.9176L17.1933 34.1439C17.5447 33.7588 18.071 33.5837 18.5832 33.6817L55.573 40.7587C56.1583 40.8707 56.6218 41.3186 56.7538 41.8997Z" fill="white" stroke="#112B87"/>
</svg>
