<svg width="187" height="48" viewBox="0 0 187 48" fill="none" xmlns="http://www.w3.org/2000/svg">
<path d="M132.131 36.8469H132.179L132.183 36.8439C136.398 36.8374 139.66 35.9826 142.18 34.1619C144.709 32.3341 146.473 29.5443 147.706 25.7043L147.706 25.7043L147.708 25.6975L152.637 6.71455L152.637 6.71408C153.067 5.03354 153.021 3.7025 152.471 2.66863L152.47 2.66851C152.061 1.90023 151.088 1.00391 149.237 1.00391C148.319 1.00391 147.253 1.19801 146.296 1.86209C145.337 2.52738 144.501 3.65515 144.024 5.4974C144.024 5.49741 144.024 5.49741 144.024 5.49742L139.302 23.7619C138.702 25.4744 137.93 26.6805 136.91 27.46C135.891 28.2391 134.61 28.6028 132.973 28.6028C131.522 28.6028 130.479 28.1643 129.836 27.3288C129.005 26.2452 128.851 24.4383 129.45 22.208L129.451 22.2069L133.486 6.64694L133.486 6.64635C133.916 4.95661 133.858 3.6298 133.271 2.61288L133.271 2.61276C132.843 1.87307 131.925 1.00391 130.074 1.00391C129.155 1.00391 128.09 1.19803 127.133 1.86172C126.174 2.5266 125.337 3.65354 124.861 5.49414C124.861 5.49423 124.861 5.49432 124.861 5.49441L120.547 21.8683L120.547 21.8683L120.547 21.87C119.535 25.9354 120.186 29.7396 122.397 32.5677C124.526 35.2926 128.274 36.8469 132.131 36.8469Z" fill="#112B87" stroke="#112B87" stroke-width="0.25"/>
<path d="M104.336 46.8652C102.689 46.8652 100.512 46.1241 99.4922 42.5969L94.3668 26.8902L89.3271 42.5386C88.3167 46.1117 86.1368 46.8652 84.4896 46.8652C82.8424 46.8652 80.7203 46.1271 79.6518 42.6122L72.9404 17.5823C72.4046 15.7575 72.4506 14.1624 73.0783 12.8458C73.7672 11.3976 75.0439 10.629 76.7646 10.629C77.8179 10.629 78.7058 10.9628 79.4039 11.6241C80.0469 12.2365 80.5613 13.2683 80.9716 14.7747L85.1815 31.6296L90.5333 14.2143C91.4243 11.2506 93.2216 10.626 94.5749 10.626C95.9282 10.626 97.7805 11.2506 98.6195 14.2236L103.969 31.795L108.234 14.5666C108.656 13.1183 109.213 12.1293 109.939 11.5353C110.68 10.9321 111.519 10.623 112.437 10.623C114.182 10.623 115.389 11.4619 115.931 13.0509C116.393 14.4104 116.359 15.9382 115.83 17.5915L109.18 42.5969C108.059 46.121 105.928 46.8559 104.339 46.8559L104.336 46.8652Z" fill="#112B87"/>
<path d="M30.047 1.13184C28.4242 1.13184 25.6992 1.8206 25.6992 6.43162V41.5653C25.6992 46.1764 28.4242 46.8654 30.047 46.8654C31.6697 46.8654 34.4498 46.1764 34.4498 41.5653V6.43162C34.4498 1.8206 31.6911 1.13184 30.047 1.13184Z" fill="#112B87"/>
<path d="M54.7163 47.0004C51.8046 47.0004 49.2327 46.2319 47.0742 44.7133C44.9279 43.21 43.244 41.0453 42.0713 38.2836C40.917 35.577 40.332 32.3561 40.332 28.7126C40.332 25.0691 40.917 21.8573 42.0713 19.1721C43.247 16.4349 44.9279 14.2825 47.0742 12.7792C49.2358 11.2636 51.8077 10.4951 54.7163 10.4951C57.625 10.4951 60.1969 11.2636 62.3585 12.7792C64.5017 14.2825 66.1856 16.4349 67.3614 19.1721C68.5156 21.8603 69.1003 25.0722 69.1003 28.7126C69.1003 32.353 68.5156 35.5739 67.3614 38.2836C66.1856 41.0453 64.5017 43.21 62.3585 44.7133C60.1969 46.2289 57.6281 46.9974 54.7163 46.9974V47.0004ZM54.7163 18.7188C53.0752 18.7188 51.7863 19.463 50.7728 20.9969C49.6859 22.6441 49.1346 25.2375 49.1346 28.7126C49.1346 32.1877 49.6888 34.7441 50.7788 36.4373C51.7922 38.011 53.0814 38.7764 54.7163 38.7764C56.3513 38.7764 57.6374 38.011 58.6539 36.4373C59.7439 34.7441 60.2978 32.1448 60.2978 28.7126C60.2978 25.2804 59.7468 22.6441 58.6599 20.9969C57.6464 19.463 56.3574 18.7188 54.7163 18.7188Z" fill="#112B87"/>
<path d="M149.449 41.145H149.449L158.677 5.90095L158.677 5.89969C159.225 3.89261 160.12 2.6647 161.125 1.94002C162.13 1.216 163.231 1.00357 164.177 1.00357C164.898 1.00357 165.515 1.14777 166.019 1.44128C166.524 1.73545 166.907 2.17514 167.167 2.75237C167.727 3.99556 167.593 5.01145 167.498 5.73457L167.498 5.73463C167.474 5.91767 167.455 6.07146 167.449 6.2043C167.454 6.1961 167.46 6.18757 167.466 6.17872L167.57 6.24805M149.449 41.145L149.6 45.2817C150.172 46.3958 151.18 46.966 152.566 46.9897L152.569 46.9994H152.659C153.605 46.9994 154.702 46.8024 155.691 46.1293C156.682 45.4549 157.553 44.3115 158.058 42.443L158.058 42.4428L161.146 30.9551C161.82 33.3924 163.315 34.8021 164.974 35.5997C166.639 36.4003 168.465 36.5834 169.79 36.5834C171.411 36.5834 172.898 36.3096 173.659 36.0373L173.659 36.0372C174.979 35.5613 176.236 34.8753 177.394 33.9952C179.855 32.1298 181.899 29.5944 183.477 26.4599L183.477 26.4597C185.04 23.3472 186.072 19.8366 186.542 16.0272C187.108 11.4516 186.508 7.75322 184.741 5.04974L184.741 5.04959C183.997 3.91569 183.088 2.99633 182.034 2.32155L182.034 2.32149C181.247 1.81893 179.16 0.875 176.832 0.875H176.831H176.831H176.831H176.83H176.83H176.83H176.829H176.829H176.829H176.828H176.828H176.828H176.827H176.827H176.827H176.826H176.826H176.826H176.825H176.825H176.824H176.824H176.824H176.823H176.823H176.823H176.822H176.822H176.822H176.821H176.821H176.821H176.82H176.82H176.82H176.819H176.819H176.819H176.818H176.818H176.818H176.817H176.817H176.817H176.816H176.816H176.816H176.815H176.815H176.815H176.814H176.814H176.814H176.813H176.813H176.812H176.812H176.812H176.811H176.811H176.811H176.81H176.81H176.81H176.809H176.809H176.809H176.808H176.808H176.808H176.807H176.807H176.807H176.806H176.806H176.806H176.805H176.805H176.805H176.804H176.804H176.803H176.803H176.803H176.802H176.802H176.802H176.801H176.801H176.801H176.8H176.8H176.8H176.799H176.799H176.799H176.798H176.798H176.798H176.797H176.797H176.797H176.796H176.796H176.796H176.795H176.795H176.794H176.794H176.794H176.793H176.793H176.793H176.792H176.792H176.792H176.791H176.791H176.791H176.79H176.79H176.79H176.789H176.789H176.789H176.788H176.788H176.788H176.787H176.787H176.786H176.786H176.786H176.785H176.785H176.785H176.784H176.784H176.784H176.783H176.783H176.783H176.782H176.782H176.782H176.781H176.781H176.781H176.78H176.78H176.779H176.779H176.779H176.778H176.778H176.778H176.777H176.777H176.777H176.776H176.776H176.776H176.775H176.775H176.775H176.774H176.774H176.774H176.773H176.773H176.772H176.772H176.772H176.771H176.771H176.771H176.77H176.77H176.77H176.769H176.769H176.769H176.768H176.768H176.768H176.767H176.767H176.767H176.766H176.766H176.765H176.765H176.765H176.764H176.764H176.764H176.763H176.763H176.763H176.762H176.762H176.762H176.761H176.761H176.761H176.76H176.76H176.759H176.759H176.759H176.758H176.758H176.758H176.757H176.757H176.757H176.756H176.756H176.756H176.755H176.755H176.755H176.754H176.754H176.753H176.753H176.753H176.752H176.752H176.752H176.751H176.751H176.751H176.75H176.75H176.75H176.749H176.749H176.749H176.748H176.748H176.747H176.747H176.747H176.746H176.746H176.746H176.745H176.745H176.745H176.744H176.744H176.744H176.743H176.743H176.743H176.742H176.742H176.741H176.741H176.741H176.74H176.74H176.74H176.739H176.739H176.739H176.738H176.738H176.738H176.737H176.737H176.736H176.736H176.736H176.735H176.735H176.735H176.734H176.734H176.734H176.733H176.733H176.733H176.732H176.732H176.732H176.731H176.731H176.73H176.73H176.73H176.729H176.729H176.729H176.728H176.728H176.728H176.727H176.727H176.727H176.726H176.726H176.725H176.725H176.725H176.724H176.724H176.724H176.723H176.723H176.723H176.722H176.722H176.722H176.721H176.721H176.72H176.72H176.72H176.719H176.719H176.719H176.718H176.718H176.718H176.717H176.717H176.717H176.716H176.716H176.716H176.715H176.715H176.714H176.714H176.714H176.713H176.713H176.713H176.712H176.712H176.712H176.711H176.711H176.711H176.71H176.71H176.709H176.709H176.709H176.708H176.708H176.708H176.707H176.707H176.707H176.706H176.706H176.706H176.705H176.705H176.704H176.704H176.704H176.703H176.703H176.703H176.702H176.702H176.702H176.701H176.701H176.701H176.7H176.7H176.699H176.699H176.699H176.698H176.698H176.698H176.697H176.697H176.697H176.696H176.696H176.696H176.695H176.695H176.694H176.694H176.694H176.693H176.693H176.693H176.692H176.692H176.692H176.691H176.691H176.691H176.69H176.69H176.689H176.689H176.689H176.688H176.688H176.688H176.687H176.687H176.687H176.686H176.686H176.685H176.685H176.685H176.684H176.684H176.684H176.683H176.683H176.683H176.682H176.682H176.682H176.681H176.681H176.68H176.68H176.68H176.679H176.679H176.679H176.678H176.678H176.678H176.677H176.677H176.677H176.676H176.676H176.675H176.675H176.675H176.674H176.674H176.674H176.673H176.673H176.673H176.672H176.672H176.672H176.671H176.671H176.67H176.67H176.67H176.669H176.669H176.669H176.668H176.668H176.668H176.667H176.667H176.666H176.666H176.666H176.665H176.665H176.665H176.664H176.664H176.664H176.663H176.663H176.663H176.662H176.662H176.661H176.661H176.661H176.66H176.66H176.66H176.659H176.659H176.659H176.658H176.658H176.658H176.657H176.657H176.656H176.656H176.656H176.655H176.655H176.655H176.654H176.654H176.654H176.653H176.653H176.653H176.652H176.652H176.651L176.651 0.874972L176.648 0.875028C174.021 0.930794 170.292 1.89969 167.466 6.17917L167.57 6.24805M149.449 41.145L149.449 41.146M149.449 41.145L149.449 41.146M167.57 6.24805C167.56 6.26339 167.55 6.27802 167.541 6.29187C167.511 6.33605 167.487 6.37221 167.469 6.39785M167.57 6.24805L167.469 6.39785M167.469 6.39785L167.454 6.38676L167.415 6.3587L167.414 6.35778L167.368 6.32433C167.38 6.30758 167.395 6.28585 167.413 6.25884L167.322 6.25702M167.469 6.39785H167.454C167.435 6.39785 167.42 6.39478 167.401 6.38559C167.353 6.36416 167.322 6.31213 167.322 6.25702M167.469 6.39785V6.27285H167.469H167.469H167.469H167.469H167.469H167.468H167.468H167.468H167.468H167.468H167.468H167.468H167.468H167.468H167.468H167.468H167.468H167.468H167.468H167.468H167.468H167.468H167.468H167.468H167.467H167.467H167.467H167.467H167.467H167.467H167.467H167.467H167.467H167.467H167.467H167.467H167.467H167.467H167.467H167.467H167.467H167.467H167.467H167.466H167.466H167.466H167.466H167.466H167.466H167.466H167.466H167.466H167.466H167.466H167.466H167.466H167.466H167.466H167.466H167.466H167.466H167.466H167.466H167.465H167.465H167.465H167.465H167.465H167.465H167.465H167.465H167.465H167.465H167.465H167.465H167.465H167.465H167.465H167.465H167.465H167.465H167.465H167.465H167.465H167.464H167.464H167.464H167.464H167.464H167.464H167.464H167.464H167.464H167.464H167.464H167.464H167.464H167.464H167.464H167.464H167.464H167.464H167.464H167.464H167.464H167.463H167.463H167.463H167.463H167.463H167.463H167.463H167.463H167.463H167.463H167.463H167.463H167.463H167.463H167.463H167.463H167.463H167.463H167.463H167.463H167.463H167.463H167.463H167.462H167.462H167.462H167.462H167.462H167.462H167.462H167.462H167.462H167.462H167.462H167.462H167.462H167.462H167.462H167.462H167.462H167.462H167.462H167.462H167.462H167.462H167.462H167.461H167.461H167.461H167.461H167.461H167.461H167.461H167.461H167.461H167.461H167.461H167.461H167.461H167.461H167.461H167.461H167.461H167.461H167.461H167.461H167.461H167.461H167.461H167.461H167.461H167.46H167.46H167.46H167.46H167.46H167.46H167.46H167.46H167.46H167.46H167.46H167.46H167.46H167.46H167.46H167.46H167.46H167.46H167.46H167.46H167.46H167.46H167.46H167.46H167.46H167.46H167.46H167.459H167.459H167.459H167.459H167.459H167.459H167.459H167.459H167.459H167.459H167.459H167.459H167.459H167.459H167.459H167.459H167.459H167.459H167.459H167.459H167.459H167.459H167.459H167.459H167.459H167.459H167.459H167.459H167.458H167.458H167.458H167.458H167.458H167.458H167.458H167.458H167.458H167.458H167.458H167.458H167.458H167.458H167.458H167.458H167.458H167.458H167.458H167.458H167.458H167.458H167.458H167.458H167.458H167.458H167.458H167.458H167.458H167.458H167.458H167.457H167.457H167.457H167.457H167.457H167.457H167.457H167.457H167.457H167.457H167.457H167.457H167.457H167.457H167.457H167.457H167.457H167.457H167.457H167.457H167.457H167.457H167.457H167.457H167.457H167.457H167.457H167.457H167.457H167.457H167.457H167.457H167.457H167.457H167.457H167.456H167.456H167.456H167.456H167.456H167.456H167.456H167.456H167.456H167.456H167.456H167.456H167.456H167.456H167.456H167.456H167.456H167.456H167.456H167.456H167.456H167.456H167.456H167.456H167.456H167.456H167.456H167.456H167.456H167.456H167.456L167.469 6.39785ZM167.322 6.25702C167.325 6.10394 167.346 5.92642 167.374 5.71822L167.414 6.25702H167.322ZM149.449 41.146C149.013 42.8686 149.053 44.2264 149.599 45.2814L149.449 41.146ZM172.541 27.2942L172.541 27.2943C171.292 28.3564 169.97 28.8719 168.259 28.8719C166.55 28.8719 165.347 28.2862 164.554 27.0907C163.73 25.8474 163.455 23.9728 163.76 21.4987C164.061 19.063 164.659 16.8527 165.534 14.9278C166.398 13.0305 167.496 11.5161 168.798 10.4252C170.072 9.3594 171.461 8.84369 173.056 8.84369C174.765 8.84369 175.968 9.42934 176.761 10.6248C177.585 11.8682 177.861 13.7428 177.556 16.2169C177.26 18.6095 176.663 20.8109 175.784 22.7576C174.917 24.6768 173.825 26.2035 172.541 27.2942Z" fill="#112B87" stroke="#112B87" stroke-width="0.25"/>
<path d="M9.52824 46.8658C7.88408 46.8658 5.12546 46.1676 5.12546 41.4984V22.7909H4.01408C0.667572 22.7909 0 19.6895 0 18.4189C0 17.1483 0.667572 14.3528 4.01408 14.3528H5.13144C5.13144 13.6088 5.12546 13.9608 5.12546 13.9608C5.11015 12.3381 5.26017 10.7216 5.57247 9.16005C5.90008 7.51589 6.66234 5.99106 7.89929 4.49386C8.4749 3.79884 9.23745 3.24464 9.90797 2.79763C10.2203 2.58943 10.5753 2.39358 10.9611 2.21906L11.0591 2.17601C11.7052 1.88514 12.3726 1.58516 13.0768 1.40757C13.8116 1.22081 14.6047 1.12891 15.4344 1.12891C17.4092 1.12891 19.1236 1.64648 19.9717 1.95265C20.4341 2.12105 20.7985 2.30167 21.1537 2.54049C21.4415 2.73338 22.112 3.18342 22.5682 3.95805C23.4776 5.49811 22.899 7.16979 22.8317 7.35349C22.501 8.24753 21.8671 8.98556 20.9976 9.49075C20.9578 9.51524 19.9964 10.0571 18.689 10.0571C18.34 10.0571 17.9938 10.0173 17.6631 9.94074L17.6326 9.93476C17.1979 9.8276 16.9469 9.78766 16.6714 9.78766C16.4999 9.78766 16.3129 9.80307 16.068 9.82144C15.1984 9.89186 14.6261 10.5439 14.5649 10.6174C14.0658 11.2052 13.8636 12.0564 13.882 13.4618C13.8912 14.1507 13.8759 14.065 13.879 14.3528H17.2284C20.5749 14.3528 21.2425 17.3014 21.2425 18.572C21.2425 19.8426 20.5749 22.7909 17.2284 22.7909H13.882V41.4984C13.882 46.1676 11.157 46.8658 9.53422 46.8658H9.52824Z" fill="#112B87"/>
</svg>
