<svg width="226" height="158" viewBox="0 0 226 158" fill="none" xmlns="http://www.w3.org/2000/svg">
<g id="Group 111">
<path id="Vector 8" d="M48.1417 141.846L61.2778 150.113C62.7491 151.039 64.5958 151.135 66.1547 150.365L203.331 82.6354C205.235 81.6953 206.337 79.6549 206.08 77.5469L199.794 25.9944C199.325 22.1478 194.848 20.2738 191.778 22.6395L47.7525 133.654C44.9982 135.777 45.1986 139.994 48.1417 141.846Z" fill="#112B87"/>
<path id="Vector 14" d="M38.8187 126.08L27.6742 121.051C24.9808 119.836 24.1697 116.399 26.0359 114.108L112.545 7.8989C114.731 5.21479 119.002 5.90133 120.238 9.13533L135.812 49.9161C136.519 51.7681 135.931 53.8647 134.364 55.0789L43.4255 125.535C42.109 126.555 40.3368 126.765 38.8187 126.08Z" fill="white" stroke="#112B87"/>
</g>
</svg>
